<svg width="32" height="29" viewBox="0 0 32 29" fill="none" xmlns="http://www.w3.org/2000/svg">
<path d="M30.4266 25.9501L30.4267 25.9497C30.5709 25.2547 30.3274 24.5648 29.7832 24.1071C27.5337 22.2213 26.1585 19.5299 25.8668 16.6478C19.7491 16.2464 14.8938 11.1418 14.8938 4.92288C14.8938 3.58292 15.1254 2.29893 15.5423 1.10241C10.0838 1.20941 5.69171 5.66759 5.69171 11.152V15.4936C5.69171 18.8256 4.23142 21.971 1.67363 24.1343C1.13228 24.5976 0.890029 25.3344 1.08668 26.0622L30.4266 25.9501ZM30.4266 25.9501C30.253 26.7891 29.4083 27.4328 28.4118 27.4328H3.06694C2.11701 27.4328 1.29985 26.8487 1.08677 26.0625L30.4266 25.9501Z" fill="#CACACA" stroke="#CACACA" stroke-width="1.69886"/>
</svg>
