<svg width="30" height="21" viewBox="0 0 30 21" fill="none" xmlns="http://www.w3.org/2000/svg">
<path d="M25.2 9.12188C25.3922 8.62031 25.5 8.07187 25.5 7.5C25.5 5.01562 23.4844 3 21 3C20.0766 3 19.2141 3.28125 18.5016 3.75937C17.2031 1.50937 14.7797 0 12 0C7.85625 0 4.5 3.35625 4.5 7.5C4.5 7.62656 4.50469 7.75313 4.50937 7.87969C1.88437 8.80313 0 11.3062 0 14.25C0 17.9766 3.02344 21 6.75 21H24C27.3141 21 30 18.3141 30 15C30 12.0984 27.9375 9.675 25.2 9.12188ZM18.9703 13.2797L14.0297 18.2203C13.7391 18.5109 13.2609 18.5109 12.9703 18.2203L8.02969 13.2797C7.55625 12.8062 7.89375 12 8.55938 12H11.625V6.75C11.625 6.3375 11.9625 6 12.375 6H14.625C15.0375 6 15.375 6.3375 15.375 6.75V12H18.4406C19.1062 12 19.4438 12.8062 18.9703 13.2797Z" fill="#CACACA" fill-opacity="0.7"/>
</svg>
