<svg width="46" height="31" viewBox="0 0 46 31" fill="none" xmlns="http://www.w3.org/2000/svg">
<path d="M45.0312 27.8047H4.71875V0.382812C4.71875 0.189453 4.50781 0.03125 4.25 0.03125H0.96875C0.710938 0.03125 0.5 0.189453 0.5 0.382812V30.6172C0.5 30.8105 0.710938 30.9688 0.96875 30.9688H45.0312C45.2891 30.9688 45.5 30.8105 45.5 30.6172V28.1562C45.5 27.9629 45.2891 27.8047 45.0312 27.8047ZM8.9375 24.9922H40.3438C40.6016 24.9922 40.8125 24.834 40.8125 24.6406V5.48047C40.8125 5.16406 40.3027 5.01025 40.0098 5.22998L27.6875 14.4717L20.3398 9.02246C20.2517 8.95703 20.1328 8.92033 20.0088 8.92033C19.8848 8.92033 19.7658 8.95703 19.6777 9.02246L8.60351 17.3545C8.5605 17.3868 8.52645 17.4252 8.50332 17.4674C8.48019 17.5097 8.46844 17.5549 8.46875 17.6006V24.6406C8.46875 24.834 8.67969 24.9922 8.9375 24.9922Z" fill="#CACACA"/>
</svg>
