<svg width="43" height="43" viewBox="0 0 43 43" fill="none" xmlns="http://www.w3.org/2000/svg">
<path d="M41.3307 18.4731C41.3297 18.4721 41.3288 18.4711 41.3278 18.4702L24.001 1.14578C23.2624 0.406985 22.2805 0 21.2361 0C20.1916 0 19.2097 0.406661 18.4708 1.14546L1.15307 18.4611C1.14724 18.4669 1.1414 18.4731 1.13557 18.4789C-0.381057 20.0041 -0.378465 22.4788 1.14302 24.0001C1.83814 24.6955 2.75622 25.0983 3.73782 25.1404C3.77768 25.1443 3.81786 25.1462 3.85837 25.1462H4.54895V37.8959C4.54895 40.4188 6.60191 42.4716 9.12573 42.4716H15.9045C16.5916 42.4716 17.1489 41.9146 17.1489 41.2273V31.2316C17.1489 30.0803 18.0855 29.1438 19.2369 29.1438H23.2352C24.3866 29.1438 25.3232 30.0803 25.3232 31.2316V41.2273C25.3232 41.9146 25.8802 42.4716 26.5676 42.4716H33.3464C35.8702 42.4716 37.9232 40.4188 37.9232 37.8959V25.1462H38.5635C39.6077 25.1462 40.5896 24.7396 41.3288 24.0008C42.8519 22.4768 42.8525 19.998 41.3307 18.4731Z" fill="#008753"/>
</svg>
