<svg width="52" height="52" viewBox="0 0 52 52" fill="none" xmlns="http://www.w3.org/2000/svg">
<path d="M21.19 20.6555C25.9765 20.6555 29.8567 16.7753 29.8567 11.9889C29.8567 7.2024 25.9765 3.3222 21.19 3.3222C16.4035 3.3222 12.5233 7.2024 12.5233 11.9889C12.5233 16.7753 16.4035 20.6555 21.19 20.6555Z" fill="#CACACA"/>
<path d="M23.7467 45.9622C23.2693 45.4901 22.9578 44.876 22.8589 44.212C22.7599 43.5479 22.8788 42.8697 23.1978 42.2789L23.9633 40.8345L22.3889 40.3578C21.7468 40.1568 21.1879 39.7519 20.7969 39.2045C20.4058 38.657 20.2041 37.997 20.2222 37.3245V34.3633C20.221 33.6938 20.4352 33.0416 20.8332 32.5032C21.2312 31.9648 21.7918 31.5686 22.4322 31.3733L24.0067 30.8967L23.2556 29.4522C22.946 28.8695 22.8281 28.204 22.9189 27.5504C23.0097 26.8968 23.3044 26.2885 23.7611 25.8122C22.6499 25.6666 21.5307 25.5894 20.41 25.5811C17.0998 25.5032 13.8132 26.1567 10.7846 27.495C7.75595 28.8333 5.05996 30.8234 2.88889 33.3233V44.5178C2.88889 44.9009 3.04107 45.2683 3.31195 45.5392C3.58284 45.8101 3.95024 45.9622 4.33333 45.9622H23.7467Z" fill="#CACACA"/>
<path d="M48.6778 33.8867L45.7889 33.02C45.5887 32.3066 45.3076 31.6184 44.9511 30.9689L46.3956 28.2822C46.4514 28.1825 46.4718 28.0668 46.4534 27.954C46.4351 27.8412 46.379 27.738 46.2944 27.6611L44.2 25.5522C44.1193 25.4737 44.0165 25.4219 43.9054 25.4038C43.7943 25.3857 43.6803 25.4022 43.5789 25.4511L40.9067 26.8956C40.2489 26.5382 39.5569 26.2479 38.8411 26.0289L37.96 23.14C37.9212 23.0335 37.8504 22.9416 37.7573 22.8769C37.6642 22.8123 37.5534 22.778 37.44 22.7789H34.4356C34.3229 22.782 34.214 22.8198 34.1236 22.8869C34.0331 22.9541 33.9655 23.0475 33.93 23.1544L33.0633 26.0433C32.3337 26.2556 31.6309 26.5513 30.9689 26.9244L28.3544 25.48C28.2528 25.426 28.1367 25.4053 28.0227 25.4208C27.9086 25.4364 27.8024 25.4874 27.7189 25.5667L25.5956 27.6467C25.5119 27.7272 25.4569 27.8328 25.4386 27.9475C25.4204 28.0622 25.44 28.1797 25.4944 28.2822L26.9389 30.9111C26.5519 31.5635 26.2371 32.2561 26 32.9767L23.1111 33.8578C23.0018 33.8894 22.9059 33.9559 22.8381 34.0472C22.7703 34.1385 22.7342 34.2496 22.7356 34.3633V37.3244C22.7342 37.4382 22.7703 37.5492 22.8381 37.6405C22.9059 37.7319 23.0018 37.7984 23.1111 37.83L26 38.7111C26.2165 39.4186 26.507 40.1012 26.8667 40.7478L25.4222 43.4922C25.3677 43.5948 25.3482 43.7122 25.3664 43.8269C25.3846 43.9416 25.4397 44.0472 25.5233 44.1278L27.6756 46.2222C27.759 46.3015 27.8653 46.3525 27.9794 46.368C28.0934 46.3836 28.2095 46.3629 28.3111 46.3089L31.0122 44.8644C31.655 45.2102 32.333 45.4862 33.0344 45.6878L33.9011 48.6489C33.9375 48.7581 34.0072 48.8531 34.1005 48.9205C34.1939 48.9879 34.306 49.0243 34.4211 49.0244H37.3822C37.4948 49.0213 37.6038 48.9836 37.6942 48.9164C37.7847 48.8492 37.8522 48.7558 37.8878 48.6489L38.7544 45.6878C39.4476 45.4887 40.1162 45.2125 40.7478 44.8644L43.4778 46.3089C43.5794 46.3629 43.6955 46.3836 43.8095 46.368C43.9236 46.3525 44.0299 46.3015 44.1133 46.2222L46.2222 44.1278C46.3015 44.0443 46.3525 43.938 46.3681 43.824C46.3836 43.7099 46.3629 43.5939 46.3089 43.4922L44.8644 40.7767C45.21 40.1439 45.486 39.4755 45.6878 38.7833L48.5767 37.9022C48.6852 37.8673 48.7806 37.8003 48.8502 37.71C48.9198 37.6198 48.9605 37.5105 48.9667 37.3967V34.4067C48.9702 34.3019 48.9452 34.1982 48.8943 34.1066C48.8434 34.015 48.7686 33.939 48.6778 33.8867ZM35.9233 40.7044C34.9685 40.7073 34.0344 40.4268 33.2391 39.8984C32.4438 39.37 31.8232 38.6176 31.4558 37.7363C31.0885 36.855 30.9909 35.8845 31.1754 34.9477C31.3599 34.0109 31.8182 33.1499 32.4924 32.4737C33.1665 31.7976 34.0261 31.3367 34.9624 31.1493C35.8986 30.962 36.8694 31.0567 37.7518 31.4214C38.6342 31.7861 39.3885 32.4045 39.9193 33.1982C40.45 33.9919 40.7333 34.9252 40.7333 35.88C40.7333 37.157 40.227 38.382 39.3254 39.2863C38.4238 40.1906 37.2004 40.7006 35.9233 40.7044Z" fill="#CACACA"/>
</svg>
