<svg width="43" height="43" viewBox="0 0 43 43" fill="none" xmlns="http://www.w3.org/2000/svg">
<path d="M40.5411 15.4442H37.6211C37.4167 14.8666 37.1814 14.2997 36.9162 13.7459L38.9818 11.6802C39.7358 10.9264 39.7358 9.70399 38.982 8.95005L33.5217 3.48975C33.1595 3.12771 32.6685 2.92423 32.1565 2.92423C31.6446 2.92423 31.1536 3.12758 30.7915 3.48975L28.7257 5.55541C28.1718 5.29029 27.605 5.05502 27.0274 4.85064V1.93053C27.0274 0.864361 26.163 0 25.0968 0H17.3747C16.3086 0 15.4442 0.864361 15.4442 1.93053V4.85064C14.8666 5.05502 14.2997 5.29029 13.746 5.55541L11.6802 3.48975C10.9264 2.73581 9.70399 2.73581 8.95005 3.48975L3.48962 8.94992C3.12745 9.31196 2.9241 9.80296 2.9241 10.3151C2.9241 10.827 3.12745 11.318 3.48962 11.6801L5.55528 13.7459C5.29016 14.2997 5.05502 14.8666 4.85064 15.4442H1.93053C0.864361 15.4442 0 16.3086 0 17.3747V25.0968C0 26.163 0.864361 27.0274 1.93053 27.0274H4.85064C5.05502 27.605 5.29016 28.1719 5.55528 28.7257L3.48962 30.7915C3.12745 31.1536 2.9241 31.6446 2.9241 32.1565C2.9241 32.6686 3.12745 33.1596 3.48962 33.5217L8.95018 38.982C9.70411 39.7358 10.9264 39.7358 11.6803 38.982L13.7461 36.9163C14.2998 37.1814 14.8667 37.4167 15.4442 37.6211V40.5411C15.4442 41.6072 16.3086 42.4716 17.3747 42.4716H25.0968C26.163 42.4716 27.0274 41.6072 27.0274 40.5411V37.6209C27.605 37.4166 28.1719 37.1813 28.7257 36.9162L30.7915 38.9818C31.5455 39.7356 32.7677 39.7358 33.5217 38.9818L38.982 33.5215C39.7359 32.7676 39.7359 31.5453 38.982 30.7914L36.9163 28.7257C37.1816 28.1719 37.4168 27.6049 37.6212 27.0274H40.5411C41.6072 27.0274 42.4716 26.163 42.4716 25.0968V17.3747C42.4716 16.3086 41.6072 15.4442 40.5411 15.4442ZM21.2358 28.9579C16.9778 28.9579 13.5137 25.4938 13.5137 21.2358C13.5137 16.9778 16.9778 13.5137 21.2358 13.5137C25.4938 13.5137 28.9579 16.9778 28.9579 21.2358C28.9579 25.4938 25.4938 28.9579 21.2358 28.9579Z" fill="#CACACA"/>
</svg>
