<svg width="48" height="38" viewBox="0 0 48 38" fill="none" xmlns="http://www.w3.org/2000/svg">
<path d="M41.0333 15.7333C40.2917 15.7333 39.475 16.2917 39.475 17.625H42.5333C42.5333 16.2917 41.7583 15.7333 41.0333 15.7333ZM31.25 15.95C30.5667 15.95 30.1417 16.1917 29.8333 16.5333L29.85 20.9333C30.1417 21.2417 30.5583 21.4917 31.25 21.4917C32.3417 21.4917 33.075 20.3 33.075 18.7083C33.075 17.1583 32.325 15.9417 31.25 15.95ZM44 0H4C1.79167 0 0 1.79167 0 4V33.3333C0 35.5417 1.79167 37.3333 4 37.3333H44C46.2083 37.3333 48 35.5417 48 33.3333V4C48 1.79167 46.2083 0 44 0ZM10.1833 20.7583C10.1833 22.8917 8.49167 24.1 6.025 24.1167C5.00833 24.1167 3.89167 23.9167 2.79167 23.4417V20.6167C3.79167 21.15 5.05 21.5583 6.03333 21.5583C6.69167 21.5583 7.16667 21.3833 7.16667 20.8333C7.16667 19.4167 2.66667 19.95 2.66667 16.675C2.66667 14.575 4.26667 13.325 6.66667 13.325C7.65 13.325 8.625 13.475 9.60833 13.8667V16.65C8.70833 16.1667 7.56667 15.8917 6.66667 15.8917C6.04167 15.8917 5.65833 16.075 5.65833 16.5333C5.65833 17.8667 10.1833 17.2333 10.1833 20.7583ZM15.9167 16.0417H13.6667V20.25C13.6667 21.9917 15.5417 21.45 15.9167 21.3V23.7083C15.525 23.925 14.8083 24.1 13.8417 24.1C12.0833 24.1 10.7667 22.8083 10.7667 21.0583L10.7833 11.5667L13.675 10.95V13.5167H15.9167V16.0417ZM22.0833 16.2417C21.7083 16.1167 20.525 15.9417 19.825 16.8583V23.8917H16.8667V13.5167H19.425L19.6083 14.3917C20.3 13.1167 21.6833 13.375 22.075 13.5167H22.0833V16.2417ZM25.7583 23.8917H22.7833V13.5167H25.7583V23.8917ZM25.7583 11.9833L22.7833 12.6167V10.2083L25.7583 9.575V11.9833ZM31.9333 24.1083C30.9 24.1083 30.2667 23.6667 29.8417 23.3583L29.8333 26.7083L26.875 27.3333V13.5167H29.4833L29.6333 14.25C30.0417 13.875 30.7917 13.325 31.95 13.325C34.025 13.325 35.9833 15.2 35.9833 18.6417C35.9833 22.4 34.05 24.1 31.9333 24.1083ZM45.3 19.8167H39.5083C39.6417 21.2 40.6583 21.6083 41.8083 21.6083C42.9833 21.6083 43.9083 21.3583 44.7167 20.95V23.3333C43.9083 23.775 42.85 24.1 41.4333 24.1C38.55 24.1 36.5333 22.2917 36.5333 18.725C36.5333 15.7083 38.2417 13.3167 41.0583 13.3167C43.8667 13.3167 45.3333 15.7083 45.3333 18.7417C45.3333 19.0333 45.3083 19.65 45.3 19.8167Z" fill="#CACACA"/>
</svg>
